<?xml version="1.0" encoding="UTF-8" standalone="no"?>
<svg
   version="1.0"
   width="1024"
   height="1024"
   viewBox="0 0 1024 1024"
   preserveAspectRatio="xMidYMid meet"
   id="svg6"
   sodipodi:docname="icon2.svg"
   inkscape:version="1.3 (0e150ed, 2023-07-21)"
   xmlns:inkscape="http://www.inkscape.org/namespaces/inkscape"
   xmlns:sodipodi="http://sodipodi.sourceforge.net/DTD/sodipodi-0.dtd"
   xmlns="http://www.w3.org/2000/svg"
   xmlns:svg="http://www.w3.org/2000/svg">
  <sodipodi:namedview
     id="namedview6"
     pagecolor="#ffffff"
     bordercolor="#000000"
     borderopacity="0.25"
     inkscape:showpageshadow="2"
     inkscape:pageopacity="0.0"
     inkscape:pagecheckerboard="0"
     inkscape:deskcolor="#d1d1d1"
     inkscape:zoom="0.23046875"
     inkscape:cx="509.83051"
     inkscape:cy="509.83051"
     inkscape:window-width="1680"
     inkscape:window-height="934"
     inkscape:window-x="0"
     inkscape:window-y="30"
     inkscape:window-maximized="1"
     inkscape:current-layer="svg6" />
  <metadata
     id="metadata1">&#10;Created by potrace 1.16, written by Peter Selinger 2001-2019&#10;</metadata>
  <defs
     id="defs4">
    <linearGradient
       id="bgGrad"
       x1="0%"
       y1="0%"
       x2="100%"
       y2="100%">
      <stop
         offset="0%"
         stop-color="#f9d923"
         id="stop1" />
      <stop
         offset="40%"
         stop-color="#ff8000"
         id="stop2" />
      <stop
         offset="80%"
         stop-color="#e85d04"
         id="stop3" />
      <stop
         offset="100%"
         stop-color="#52b44b"
         id="stop4" />
    </linearGradient>
  </defs>
  <rect
     width="1024"
     height="1024"
     fill="url(#bgGrad)"
     id="rect4" />
  <g
     transform="matrix(1.4748304,0,0,1.4780966,-234.7392,-304.08739)"
     id="g6">
    <g
       transform="matrix(0.025,0,0,-0.025,0,1024)"
       fill="#ffffff"
       stroke="none"
       id="g5">
      <path
         d="m 26895,30402 c -16,-11 -37,-27 -45,-37 -8,-10 -48,-43 -90,-75 -142,-109 -824,-825 -1066,-1120 -43,-52 -107,-129 -144,-170 -36,-41 -82,-95 -101,-120 -37,-47 -236,-334 -298,-430 -20,-30 -82,-124 -138,-208 -57,-84 -148,-228 -202,-320 -239,-406 -240,-407 -263,-384 -4,4 -53,122 -108,261 -115,291 -270,606 -393,801 -46,75 -101,169 -122,210 -46,92 -213,346 -250,380 -36,34 -147,166 -206,247 -86,118 -322,365 -409,428 -45,33 -146,109 -224,169 -146,112 -206,147 -316,186 -167,59 -388,-2 -496,-138 -123,-156 -175,-272 -269,-597 -70,-242 -267,-825 -325,-960 -63,-147 -111,-276 -140,-375 -19,-66 -160,-398 -180,-425 -30,-40 -399,-788 -427,-864 -19,-53 -65,-169 -103,-258 -140,-327 -246,-641 -293,-868 -50,-240 -65,-369 -82,-700 -23,-461 -21,-446 -55,-547 -44,-132 -145,-294 -330,-528 -121,-153 -417,-618 -545,-855 -27,-49 -81,-139 -120,-200 -39,-60 -86,-137 -105,-170 -18,-33 -70,-118 -115,-190 -45,-71 -111,-181 -146,-243 -95,-167 -210,-360 -266,-443 -27,-41 -89,-141 -138,-224 -48,-82 -115,-190 -147,-238 -33,-48 -94,-154 -137,-235 -80,-152 -101,-187 -241,-407 -46,-71 -116,-184 -158,-250 -41,-66 -107,-172 -147,-235 -40,-63 -119,-194 -177,-290 -58,-96 -156,-256 -218,-355 -228,-363 -258,-412 -305,-495 -56,-100 -181,-298 -268,-425 -34,-50 -97,-152 -140,-228 -43,-76 -111,-188 -151,-250 -71,-109 -90,-142 -184,-317 -25,-47 -126,-209 -223,-360 -345,-537 -344,-535 -429,-690 -75,-137 -179,-298 -208,-324 -44,-39 -93,-19 -171,68 -25,28 -116,120 -201,204 -85,85 -209,207 -275,273 -66,65 -149,151 -185,191 -36,40 -154,159 -262,263 -109,105 -311,307 -449,450 -138,143 -274,280 -303,305 -28,25 -189,187 -357,360 -169,173 -473,483 -676,689 -362,366 -370,374 -402,368 -36,-7 -68,-32 -288,-217 -81,-69 -177,-146 -213,-172 -36,-25 -94,-73 -130,-105 -36,-32 -86,-74 -110,-92 -25,-19 -108,-85 -185,-146 -77,-61 -162,-127 -190,-145 -76,-52 -270,-206 -411,-326 -69,-60 -158,-132 -198,-160 -39,-27 -138,-103 -221,-168 -82,-65 -177,-139 -209,-165 -33,-25 -89,-71 -125,-101 -37,-31 -151,-121 -255,-200 -105,-80 -235,-182 -290,-227 -88,-72 -368,-292 -589,-463 -45,-35 -73,-64 -75,-78 -3,-17 15,-42 65,-95 37,-40 113,-126 168,-191 55,-66 129,-151 166,-190 36,-39 103,-118 149,-176 46,-58 123,-148 171,-200 48,-52 117,-133 154,-180 91,-114 159,-193 286,-330 111,-120 278,-310 451,-515 56,-66 129,-149 163,-185 33,-36 88,-99 120,-140 32,-41 97,-115 143,-165 47,-49 110,-124 142,-165 32,-41 94,-115 139,-165 44,-49 127,-142 183,-205 56,-63 148,-164 203,-225 55,-60 126,-141 157,-180 30,-38 100,-120 154,-181 174,-194 669,-765 796,-918 142,-169 367,-426 473,-541 56,-60 173,-193 260,-295 144,-168 297,-341 460,-520 33,-36 108,-126 166,-200 59,-74 164,-198 235,-276 201,-219 326,-362 388,-444 58,-75 178,-211 398,-449 64,-69 139,-155 166,-191 27,-36 89,-110 138,-165 50,-55 123,-140 164,-190 41,-49 104,-122 140,-160 36,-39 101,-113 145,-165 43,-52 133,-155 200,-229 147,-164 321,-363 438,-502 48,-57 127,-148 175,-201 256,-283 428,-484 571,-667 88,-113 296,-311 326,-311 41,0 163,147 340,407 116,172 323,457 400,553 91,113 196,258 237,325 20,34 86,125 145,203 59,77 129,174 155,214 25,40 75,107 110,149 34,43 110,143 168,223 58,80 145,199 194,263 48,65 118,163 154,218 36,55 107,152 157,215 50,63 112,147 138,185 25,39 91,133 146,210 55,77 144,203 198,280 53,77 125,172 158,212 34,40 89,112 124,160 62,89 214,297 372,512 173,236 355,487 380,526 14,22 47,65 73,95 26,30 92,120 146,200 55,80 125,177 156,215 31,39 77,102 102,140 24,39 62,90 82,115 21,25 62,84 93,131 30,47 95,139 144,205 50,65 107,146 127,178 21,33 62,85 90,115 29,31 99,124 156,206 57,83 130,184 161,225 122,158 276,367 299,405 13,22 47,69 75,105 28,36 100,133 159,215 59,83 126,173 149,201 42,50 92,120 217,299 36,52 79,109 96,127 41,44 152,207 197,291 20,37 83,129 140,205 57,75 124,169 149,207 24,39 73,101 107,138 90,99 174,207 254,327 39,58 107,155 152,215 83,111 131,184 178,265 14,25 58,83 97,129 39,46 96,118 126,158 58,78 174,203 409,438 192,191 252,247 380,350 61,49 149,122 197,162 48,39 137,101 197,137 61,36 158,95 216,131 142,87 307,169 424,210 53,19 193,73 311,120 192,76 236,90 405,125 105,21 276,49 380,62 179,22 218,23 670,20 1058,-7 1238,17 1995,268 219,73 336,123 438,188 43,28 125,76 182,107 206,112 292,180 608,477 225,212 342,337 387,414 15,25 62,91 104,147 72,94 102,142 201,317 20,36 53,88 75,115 51,66 110,194 184,398 76,211 87,253 102,404 14,141 6,199 -42,324 -68,176 -128,235 -377,365 -81,42 -177,96 -214,120 -108,69 -205,119 -338,174 -69,28 -161,71 -205,95 -115,62 -331,169 -406,200 -153,65 -290,131 -379,185 -96,58 -166,89 -342,155 -140,51 -647,310 -748,380 -108,76 -331,293 -422,410 -87,112 -119,169 -220,392 -147,326 -187,421 -227,535 -52,149 -62,172 -122,275 -63,107 -103,154 -289,346 -223,230 -364,348 -600,503 -74,48 -161,108 -192,132 -55,41 -58,45 -58,87 0,25 16,88 37,147 151,428 243,1102 243,1793 0,743 -59,1146 -261,1780 -89,280 -129,375 -172,411 -34,29 -34,29 -72,6 z m -4305,-1211 c 138,-97 238,-183 315,-272 44,-51 99,-113 121,-138 23,-25 78,-107 123,-181 44,-74 135,-220 201,-323 275,-429 394,-700 525,-1202 21,-77 57,-214 81,-305 118,-438 148,-615 148,-860 -1,-176 -31,-410 -71,-550 -72,-254 -171,-549 -217,-655 -60,-136 -67,-157 -55,-176 11,-18 45,0 159,84 134,99 281,276 412,494 143,238 217,417 299,718 34,127 70,247 81,268 35,70 15,71 508,-19 41,-7 120,-26 175,-43 55,-16 141,-39 190,-51 108,-27 353,-107 450,-148 66,-28 200,-85 360,-154 39,-16 88,-40 110,-52 22,-13 114,-65 205,-116 238,-133 288,-168 451,-311 190,-166 409,-432 477,-579 17,-36 77,-162 133,-280 56,-118 133,-291 171,-385 75,-184 127,-287 221,-435 33,-52 75,-120 93,-150 41,-70 126,-153 233,-229 216,-153 1249,-692 1591,-830 462,-186 448,-177 431,-289 -27,-173 1,-559 51,-707 43,-129 71,-166 280,-369 195,-190 198,-194 188,-222 -6,-16 -17,-36 -24,-44 -7,-8 -39,-65 -71,-127 -68,-132 -121,-197 -270,-330 -151,-135 -173,-151 -310,-228 -66,-37 -145,-85 -175,-105 -96,-65 -276,-150 -413,-195 -362,-117 -709,-176 -1122,-191 -162,-5 -207,-3 -445,25 -146,17 -290,35 -320,41 -50,8 -137,19 -400,51 -284,33 -576,29 -1070,-16 -388,-35 -508,-51 -735,-96 -188,-38 -258,-53 -647,-143 -190,-44 -328,-91 -457,-155 -53,-27 -170,-77 -261,-111 -194,-74 -301,-132 -641,-342 -197,-122 -262,-172 -554,-428 -280,-246 -420,-383 -554,-545 -367,-440 -764,-1065 -677,-1065 8,0 76,69 150,153 153,174 207,227 326,322 47,37 119,100 160,140 41,40 100,90 130,112 30,22 95,74 144,116 49,43 112,92 140,111 28,18 131,87 229,152 248,166 300,198 397,245 47,23 193,95 325,160 153,76 281,132 355,155 121,38 287,95 405,139 66,25 285,80 367,92 83,12 47,-57 -61,-119 -84,-48 -391,-283 -557,-426 -199,-171 -404,-399 -625,-692 -72,-96 -148,-193 -168,-215 -70,-76 -357,-470 -395,-540 -20,-38 -95,-151 -166,-250 -71,-99 -179,-250 -240,-335 -61,-85 -144,-198 -186,-250 -42,-52 -103,-133 -135,-180 -33,-47 -81,-112 -108,-145 -26,-33 -94,-127 -151,-210 -57,-82 -130,-182 -161,-220 -52,-65 -146,-196 -241,-337 -20,-31 -62,-83 -91,-115 -30,-32 -87,-103 -128,-158 -41,-55 -108,-143 -150,-195 -42,-52 -95,-124 -119,-160 -42,-62 -98,-136 -277,-365 -43,-55 -112,-147 -153,-205 -41,-58 -96,-129 -121,-160 -26,-30 -73,-86 -106,-125 -32,-38 -87,-108 -123,-155 -35,-47 -87,-112 -115,-145 -28,-33 -98,-123 -154,-199 -57,-77 -133,-174 -168,-215 -36,-42 -87,-102 -115,-133 -89,-104 -99,-72 -39,128 40,133 55,193 116,450 115,490 157,880 169,1553 5,277 3,327 -19,546 -35,336 -43,387 -170,1075 -25,138 -40,199 -90,370 -19,63 -47,169 -63,235 -17,67 -51,184 -75,260 -100,309 -114,361 -281,1025 -82,326 -118,542 -136,819 -6,91 -13,174 -15,185 -18,77 -45,507 -45,699 0,291 17,750 30,818 6,30 15,126 20,214 7,142 39,364 71,510 6,28 49,183 96,345 47,162 104,369 128,460 34,128 63,208 130,360 48,107 116,262 151,343 70,164 118,257 234,452 42,72 98,168 124,215 26,47 72,119 102,160 31,41 74,106 96,143 76,130 74,131 345,-243 187,-259 300,-396 466,-567 182,-186 296,-268 329,-235 12,12 -2,39 -102,196 -65,103 -96,164 -162,326 -170,415 -259,741 -329,1200 -42,275 -42,275 -43,595 -1,220 3,343 12,395 37,218 119,510 189,680 19,47 51,130 70,185 20,55 75,183 123,285 49,102 118,255 155,340 83,191 110,246 191,382 80,135 126,228 149,298 10,30 35,89 55,130 21,41 47,107 59,145 12,39 37,108 56,155 33,83 106,329 159,535 14,56 32,118 41,138 14,35 61,199 126,446 15,59 34,110 44,117 23,17 51,7 125,-45 z"
         id="path4" />
      <path
         d="m 26375,23736 c -163,-24 -197,-32 -535,-133 -63,-18 -170,-49 -238,-69 -164,-46 -232,-77 -232,-103 0,-30 34,-48 140,-72 108,-24 161,-48 275,-123 129,-86 350,-215 428,-251 155,-71 378,-118 629,-131 146,-8 272,-37 408,-96 206,-88 414,-147 450,-128 23,12 25,31 8,63 -24,47 -107,147 -208,252 -58,61 -127,144 -154,185 -27,41 -75,109 -106,150 -31,41 -81,116 -110,165 -30,50 -77,113 -106,140 -66,64 -185,132 -253,145 -91,17 -298,20 -396,6 z"
         id="path5" />
    </g>
  </g>
</svg>
